<svg xmlns="http://www.w3.org/2000/svg" viewBox="0 0 51.97 51.97"><defs><style>.cls-1{fill:#e72d75;}.cls-2{fill:#fff;}</style></defs><title>gelateria</title><g id="Livello_2" data-name="Livello 2"><g id="Livello_1-2" data-name="Livello 1"><circle class="cls-1" cx="25.99" cy="25.99" r="25.99"/><path class="cls-2" d="M33.24,24.13H18.79a.88.88,0,0,0-.72.39.85.85,0,0,0-.08.8l1.19,3c.13.33,6.48,12.47,6.83,12.47l4.82-8.62c.36,0,3.09-6.47,3.21-6.8h0a.87.87,0,0,0-.8-1.19Z"/><path class="cls-2" d="M32.3,14.57a7.25,7.25,0,0,0-.92-2.42C30,9.74,27.12,8.71,25.54,8.31a1.33,1.33,0,0,0-.31,0,1.25,1.25,0,0,0-1.17,1.66,2.15,2.15,0,0,1,0,1c-.06.49-.4.71-1.28,1.17a6.1,6.1,0,0,0-2.27,1.71,3.52,3.52,0,0,0-.34.57c-2.5,1.11-4.1,2.94-4.1,5a4.67,4.67,0,0,0,1.54,3.35.86.86,0,0,0,.61.25h15.5a.87.87,0,0,0,.61-.25,4.67,4.67,0,0,0,1.55-3.35C35.92,17.42,34.52,15.7,32.3,14.57ZM21.15,20.72A1.74,1.74,0,1,1,22.89,19,1.74,1.74,0,0,1,21.15,20.72ZM26,19.25a1.11,1.11,0,1,1,1.11-1.11A1.12,1.12,0,0,1,26,19.25Zm4.81,1.48a1.41,1.41,0,1,1,1.42-1.41A1.41,1.41,0,0,1,30.79,20.73Zm-3.05-5.56a1.76,1.76,0,1,1,1.76-1.76A1.76,1.76,0,0,1,27.74,15.16Z"/></g></g></svg>