<svg xmlns="http://www.w3.org/2000/svg" viewBox="0 0 50.86 50.87"><defs><style>.cls-1{fill:#f2c24a;}.cls-2{fill:#fff;}</style></defs><title>ico_food</title><g id="Layer_2" data-name="Layer 2"><g id="Livello_1" data-name="Livello 1"><path class="cls-1" d="M50.86,25.43A25.43,25.43,0,1,0,25.43,50.87,25.43,25.43,0,0,0,50.86,25.43Z"/><path class="cls-2" d="M14.38,22.83H37.52a1.07,1.07,0,0,0,.72-.47,1.06,1.06,0,0,0,.18-.84,12.77,12.77,0,0,0-25,0,1.18,1.18,0,0,0,.19.89,1.06,1.06,0,0,0,.72.46ZM33.7,17.48a1.4,1.4,0,1,1-1.4,1.4,1.4,1.4,0,0,1,1.4-1.4Zm-5.08,2.17a1.4,1.4,0,1,1-1.4-1.4,1.4,1.4,0,0,1,1.4,1.4Zm.66-6.59a1.4,1.4,0,1,1-1.4,1.39,1.39,1.39,0,0,1,1.4-1.39Zm-6.43.86a1.4,1.4,0,1,1-1.4,1.39,1.4,1.4,0,0,1,1.4-1.39Zm-4.67,3.94a1.4,1.4,0,1,1-1.4,1.39,1.39,1.39,0,0,1,1.4-1.39Zm-.71.34"/><path class="cls-2" d="M37.66,28.93H14.25a.94.94,0,0,0-.71.34.92.92,0,0,0-.21.76c.91,5.58,6.21,5,12.62,5s11.72.64,12.63-4.95a.94.94,0,0,0-.92-1.1Zm0,0"/><path class="cls-2" d="M12.52,27.8H39.37A1.78,1.78,0,0,0,41.16,26v-.41a1.78,1.78,0,0,0-1.79-1.77H12.52a1.77,1.77,0,0,0-1.78,1.77V26a1.77,1.77,0,0,0,1.78,1.77Zm0,0"/></g></g></svg>