<svg xmlns="http://www.w3.org/2000/svg" viewBox="0 0 67.08 67.08"><defs><style>.cls-1{fill:#768cae;}.cls-2{fill:#fff;}</style></defs><title>ico_menu</title><g id="Layer_2" data-name="Layer 2"><g id="Livello_1" data-name="Livello 1"><circle class="cls-1" cx="33.54" cy="33.54" r="33.54"/><rect class="cls-2" x="20.77" y="16.99" width="25.55" height="34.86"/><polygon class="cls-2" points="20.77 16.99 39.22 9.77 39.22 14.57 20.77 16.99"/><path class="cls-1" d="M39.57,40.91H27.51a1.27,1.27,0,0,1,0-2.53H39.57a1.27,1.27,0,0,1,0,2.53Z"/><path class="cls-1" d="M34.56,28.76V28a1,1,0,1,0-2,0v.79a7.1,7.1,0,0,0-6.13,7,1,1,0,0,0,1,1H39.67a1,1,0,0,0,1-1A7.1,7.1,0,0,0,34.56,28.76Z"/></g></g></svg>