<svg xmlns="http://www.w3.org/2000/svg" viewBox="0 0 51.39 51.39"><defs><style>.cls-1{fill:#c4af95;}.cls-2{fill:#fff;}</style></defs><title>ico_cafe</title><g id="Layer_2" data-name="Layer 2"><g id="Livello_1" data-name="Livello 1"><circle class="cls-1" cx="25.69" cy="25.7" r="25.69"/><path class="cls-2" d="M23.85,37.88h4a7.22,7.22,0,0,0,7-5.36h.23a4.78,4.78,0,0,0,0-9.55V21.23H16.65v9.45a7.21,7.21,0,0,0,7.2,7.21Zm11.23-13a2.85,2.85,0,0,1,0,5.7Zm0,0"/><path class="cls-2" d="M24.22,17.94a1.86,1.86,0,1,0,1.85-1.86,1.86,1.86,0,0,0-1.85,1.86Zm0,0"/><path class="cls-2" d="M22.83,11.66a3.25,3.25,0,1,0,3.25-3.25,3.26,3.26,0,0,0-3.25,3.25Zm0,0"/></g></g></svg>