<svg xmlns="http://www.w3.org/2000/svg" viewBox="0 0 50.86 50.87"><defs><style>.cls-1{fill:#a783ba;}.cls-2{fill:#fff;}</style></defs><title>ico_lounge</title><g id="Layer_2" data-name="Layer 2"><g id="Livello_1" data-name="Livello 1"><circle class="cls-1" cx="25.43" cy="25.43" r="25.43"/><path class="cls-2" d="M26.73,38.47V32.92a8.69,8.69,0,0,0,7.75-8.63,16,16,0,0,0-1.24-5.63,1.1,1.1,0,0,0-1-.7H19.37a1.09,1.09,0,0,0-1,.7,15.65,15.65,0,0,0-1.24,5.81h0a8.68,8.68,0,0,0,7.74,8.45v5.55c-2.95.24-5.21,1.55-5.21,2.21S22.4,42,25.8,42,32,41.41,32,40.68s-2.27-2-5.22-2.21ZM19.91,19.83H31.69a13.6,13.6,0,0,1,.92,4.45,6.79,6.79,0,0,1-.07.9,3.14,3.14,0,0,0-1.84.06c-1.7.61-2.81,1-4.53.32s-2.81-3.74-4.88-3.51a5.22,5.22,0,0,0-2.15.74,15.94,15.94,0,0,1,.78-3Zm0,0"/><path class="cls-2" d="M23.86,14.32a1.13,1.13,0,1,1-1.14,1.11,1.13,1.13,0,0,1,1.14-1.11Z"/><path class="cls-2" d="M26.75,12.77A1.76,1.76,0,1,1,28.53,11a1.76,1.76,0,0,1-1.78,1.73Z"/><path class="cls-2" d="M24,7.77A2.24,2.24,0,1,1,26.3,5.56,2.24,2.24,0,0,1,24,7.77Z"/></g></g></svg>