<svg xmlns="http://www.w3.org/2000/svg" viewBox="0 0 15.55 15.98"><defs><style>.cls-1{fill:#9d9d9c;}</style></defs><title>instagram_ico</title><g id="Layer_2" data-name="Layer 2"><g id="Livello_1" data-name="Livello 1"><path class="cls-1" d="M11,16H4.56A4.57,4.57,0,0,1,0,11.41V4.56A4.57,4.57,0,0,1,4.56,0H11a4.57,4.57,0,0,1,4.56,4.56v6.85A4.57,4.57,0,0,1,11,16ZM4.56,1.17A3.4,3.4,0,0,0,1.17,4.56v6.85a3.4,3.4,0,0,0,3.39,3.39H11a3.4,3.4,0,0,0,3.39-3.39V4.56A3.4,3.4,0,0,0,11,1.17Z"/><path class="cls-1" d="M7.77,12.21A4.25,4.25,0,0,1,3.53,8a4.32,4.32,0,0,1,1.3-3.08,4.06,4.06,0,0,1,3-1.16A4.39,4.39,0,0,1,11,5,4.11,4.11,0,0,1,12,8h0a4.35,4.35,0,0,1-1.26,3A4.18,4.18,0,0,1,7.77,12.21Zm-.1-7.06a2.64,2.64,0,0,0-1.85.76A2.88,2.88,0,0,0,5,8a2.81,2.81,0,1,0,5.63,0,2.71,2.71,0,0,0-.67-2,3,3,0,0,0-2.17-.84Z"/><circle class="cls-1" cx="12.12" cy="3.6" r="0.99"/></g></g></svg>