<svg xmlns="http://www.w3.org/2000/svg" viewBox="0 0 154 88.53"><defs><style>.cls-1{fill:#9d9d9c;}</style></defs><title>logo_footer</title><g id="Layer_2" data-name="Layer 2"><g id="Livello_1" data-name="Livello 1"><path class="cls-1" d="M37,82.67a.49.49,0,0,0-.48.48V88a.48.48,0,0,0,1,0v-4.9a.49.49,0,0,0-.48-.48Z"/><path class="cls-1" d="M42.18,82.64H38.77a.47.47,0,0,0-.35.14.49.49,0,0,0,0,.68.47.47,0,0,0,.35.14H40V88a.47.47,0,0,0,.14.34.49.49,0,0,0,.68,0A.47.47,0,0,0,41,88V83.61h1.22a.48.48,0,0,0,0-1Z"/><path class="cls-1" d="M47.5,86.61h0L46,83l0,0v0l0,0v0l0,0v0l0,0h0l0,0h0l0,0h0l-.09,0h-.41l0,0h0l0,0h0l0,0h0l0,0v0l0,0v0l0,0-1.51,3.64h0l-.52,1.25a.48.48,0,0,0,.26.63l.09,0h.09a.45.45,0,0,0,.45-.3l.39-1h2.38l.39,1a.45.45,0,0,0,.45.3.49.49,0,0,0,.18,0,.48.48,0,0,0,.26-.26.48.48,0,0,0,0-.37Zm-2.75-.3.79-1.9.79,1.9Z"/><path class="cls-1" d="M52.08,87.56H49.91V83.13a.48.48,0,0,0-1,0V88a.49.49,0,0,0,.48.48h2.66a.47.47,0,0,0,.34-.14.49.49,0,0,0,0-.68A.47.47,0,0,0,52.08,87.56Z"/><path class="cls-1" d="M53.83,82.67a.49.49,0,0,0-.48.48V88a.48.48,0,0,0,1,0v-4.9a.49.49,0,0,0-.48-.48Z"/><path class="cls-1" d="M59.71,86.61h0L58.2,83l0,0v0l0,0v0l0,0v0l0,0h0l0,0h0l0,0h0l-.09,0h-.41l0,0h0l0,0h0l0,0h0l0,0v0l0,0v0l0,0L55.8,86.61h0l-.52,1.25a.48.48,0,0,0,.26.63l.09,0h.09a.45.45,0,0,0,.45-.3l.39-1h2.38l.39,1a.45.45,0,0,0,.45.3.48.48,0,0,0,.18,0,.47.47,0,0,0,.26-.26.48.48,0,0,0,0-.37ZM57,86.32l.79-1.9.79,1.9Z"/><path class="cls-1" d="M65.44,82.65a.47.47,0,0,0-.34.14.46.46,0,0,0-.14.34v3.5l-3-3.8a.47.47,0,0,0-.24-.17.45.45,0,0,0-.3,0,.48.48,0,0,0-.33.46V88a.48.48,0,0,0,1,0v-3.5l3,3.8h0v0l0,0h0l0,0h0l0,0h.34l.07,0h0l.06,0h0l.06,0h0l0,0h0l0,0,0,0v0l0,0h0v-.16a.06.06,0,0,0,0,0v-5a.49.49,0,0,0-.48-.48Z"/><path class="cls-1" d="M72.82,82.65h-3a.46.46,0,0,0-.34.14.46.46,0,0,0-.14.34V88a.49.49,0,0,0,.48.48.47.47,0,0,0,.34-.14.46.46,0,0,0,.14-.34v-2h1.79a.48.48,0,0,0,.34-.14.49.49,0,0,0,0-.69.48.48,0,0,0-.34-.14H70.34V83.61h2.48a.49.49,0,0,0,.48-.48.48.48,0,0,0-.14-.34A.47.47,0,0,0,72.82,82.65Z"/><path class="cls-1" d="M76.72,82.64a2.94,2.94,0,1,0,2.09.86A2.83,2.83,0,0,0,76.72,82.64ZM78.12,87a2,2,0,1,1,.58-1.4A1.91,1.91,0,0,1,78.12,87Z"/><path class="cls-1" d="M83.47,82.64a2.94,2.94,0,1,0,2.08.86A2.84,2.84,0,0,0,83.47,82.64ZM84.87,87a2,2,0,1,1,.58-1.4A1.91,1.91,0,0,1,84.87,87Z"/><path class="cls-1" d="M89.34,82.65H88.09a.46.46,0,0,0-.34.14.47.47,0,0,0-.14.34V88a.48.48,0,0,0,.48.48h0l1.24,0a2.93,2.93,0,1,0,0-5.87ZM90.72,87a1.9,1.9,0,0,1-1.39.57h-.75V83.62h.76A2,2,0,0,1,90.72,87Z"/><path class="cls-1" d="M98.52,85.25a1.48,1.48,0,1,0-2.43-1.14,1.44,1.44,0,0,0,.3.9,1.86,1.86,0,0,0-.76.67,1.82,1.82,0,0,0-.29,1,1.85,1.85,0,0,0,1.86,1.85,1.85,1.85,0,0,0,1.68-1.08l.59.81a.48.48,0,0,0,.41.21.49.49,0,0,0,.49-.42.48.48,0,0,0-.09-.37Zm-.71,2a.85.85,0,1,1-1.21-1.21.85.85,0,0,1,1.21,1.21Zm.11-2.83a.46.46,0,0,1-.34.14.46.46,0,0,1-.34-.14.47.47,0,0,1-.14-.34.48.48,0,0,1,.48-.48.45.45,0,0,1,.34.14.46.46,0,0,1,.14.34A.47.47,0,0,1,97.91,84.45Z"/><path class="cls-1" d="M106.55,87.56h-2.17V83.13a.48.48,0,0,0-1,0V88a.49.49,0,0,0,.48.48h2.66A.48.48,0,0,0,107,88a.47.47,0,0,0-.14-.34A.47.47,0,0,0,106.55,87.56Z"/><path class="cls-1" d="M110.42,82.64a2.94,2.94,0,1,0,2.08.86A2.84,2.84,0,0,0,110.42,82.64Zm1.4,4.34a2,2,0,1,1,.58-1.4A1.91,1.91,0,0,1,111.82,87Z"/><path class="cls-1" d="M118.19,82.65a.48.48,0,0,0-.48.48v3.31a1.15,1.15,0,1,1-2.29,0V83.12a.48.48,0,0,0-1,0v3.31a2.1,2.1,0,1,0,4.2,0V83.12a.48.48,0,0,0-.48-.48Z"/><path class="cls-1" d="M124.26,82.65a.47.47,0,0,0-.35.14.47.47,0,0,0-.14.34v3.5l-3-3.8a.47.47,0,0,0-.24-.17.45.45,0,0,0-.3,0,.48.48,0,0,0-.33.46V88a.48.48,0,0,0,1,0v-3.5l3,3.8h0v0l0,0h0l0,0h0l0,0h.34l.07,0h0l.07,0h0l.06,0h0l0,0h0l0,0,0,0v0l0,0h0v-.16a.06.06,0,0,0,0,0v-5a.49.49,0,0,0-.48-.48Z"/><path class="cls-1" d="M130.56,85h-2.09a.46.46,0,0,0-.34.14.48.48,0,0,0,.34.83h1.6V87l0,0a2,2,0,1,1-.13-3,.49.49,0,0,0,.68-.09.47.47,0,0,0,.1-.36.48.48,0,0,0-.19-.32,2.93,2.93,0,0,0-3.86.25,2.94,2.94,0,0,0,2.08,5,2.91,2.91,0,0,0,1.37-.34.46.46,0,0,0,.17.25.47.47,0,0,0,.3.1h0A.49.49,0,0,0,131,88v-2.6a.49.49,0,0,0-.49-.49Z"/><path class="cls-1" d="M135.69,83.62h0a.49.49,0,0,0,.48-.48.48.48,0,0,0-.14-.34.47.47,0,0,0-.35-.14h-3a.49.49,0,0,0-.48.49V88a.49.49,0,0,0,.48.48h3a.49.49,0,0,0,.48-.48.47.47,0,0,0-.14-.35.46.46,0,0,0-.34-.14h-2.48V86.07H135a.48.48,0,0,0,.34-.14.49.49,0,0,0,0-.69.48.48,0,0,0-.34-.14h-1.79V83.61Z"/><path class="cls-1" d="M142.71,85.54a1.63,1.63,0,0,0,.5-1.19,1.58,1.58,0,0,0-.53-1.21,1.85,1.85,0,0,0-1.31-.49h-1.72a.49.49,0,0,0-.34.14.47.47,0,0,0-.14.34V88a.49.49,0,0,0,.48.48h1.82a1.83,1.83,0,0,0,1.3-.5,1.6,1.6,0,0,0,.54-1.21A1.57,1.57,0,0,0,142.71,85.54Zm-2.57-1.92h1.24a.91.91,0,0,1,.61.21.65.65,0,0,1,.25.52.71.71,0,0,1-.25.54.89.89,0,0,1-.61.23h-1.24Zm1.95,3.71a.9.9,0,0,1-.62.22h-1.33V86.09h1.34a.91.91,0,0,1,.61.21.64.64,0,0,1,.25.51A.67.67,0,0,1,142.09,87.34Z"/><path class="cls-1" d="M148.58,86.61h0L147.07,83l0,0v0l0,0v0l0,0v0l0,0h0l0,0h0l0,0h0l-.09,0h-.41l0,0h0l0,0h0l0,0h0l0,0v0l0,0v0l0,0-1.51,3.64h0l-.52,1.25a.48.48,0,0,0,0,.37.48.48,0,0,0,.26.26l.09,0h.09a.45.45,0,0,0,.45-.3l.39-1h2.38l.39,1a.45.45,0,0,0,.45.3.48.48,0,0,0,.18,0,.48.48,0,0,0,.26-.63Zm-2.75-.3.79-1.9.79,1.9Z"/><path class="cls-1" d="M152.81,86a1.76,1.76,0,0,0,.85-.62,1.57,1.57,0,0,0,.34-1,1.6,1.6,0,0,0-.54-1.21,1.82,1.82,0,0,0-1.29-.5h-1.7a.48.48,0,0,0-.48.48V88a.48.48,0,0,0,.48.48A.48.48,0,0,0,151,88v-2h.83l1.09,2.2a.45.45,0,0,0,.43.27.49.49,0,0,0,.21,0,.49.49,0,0,0,.22-.64Zm-.61-.86H151V83.6h1.21a.91.91,0,0,1,.61.22.68.68,0,0,1,0,1A.92.92,0,0,1,152.2,85.09Z"/><path class="cls-1" d="M83.66,27H5.15a1.93,1.93,0,0,0,0,3.87H83.66a1.93,1.93,0,0,0,0-3.87Z"/><path class="cls-1" d="M47.21,35.86H28.79a1.94,1.94,0,0,0-1.94,1.93s0,.08,0,.12,0,0,0,0V86a.3.3,0,0,0,0,.07,2,2,0,0,0,0,.22,1.94,1.94,0,1,0,3.87,0,2,2,0,0,0,0-.22.28.28,0,0,0,0-.07V39.73H47.21a1.94,1.94,0,1,0,0-3.87Z"/><path class="cls-1" d="M49.14,1.94a1.94,1.94,0,0,0-3.87,0s0,.08,0,.12,0,0,0,0V37.5a.26.26,0,0,0,0,.07,2,2,0,0,0,0,.22,1.94,1.94,0,1,0,3.87,0,2,2,0,0,0,0-.22.31.31,0,0,0,0-.07V2.08a.23.23,0,0,0,0,0S49.14,2,49.14,1.94Z"/><path class="cls-1" d="M109.39,19.1H21.48a1.94,1.94,0,0,0,0,3.87h87.92a1.94,1.94,0,0,0,0-3.87Z"/><path class="cls-1" d="M50.46,57.63H21.36V41.3a.22.22,0,0,0,0,0s0-.08,0-.12a1.93,1.93,0,0,0-1.94-1.93H1.93a1.93,1.93,0,1,0,0,3.87H17.49v16.2a.27.27,0,0,0,0,.07,1.91,1.91,0,0,0,0,.22,1.94,1.94,0,0,0,1.21,1.8l.21.08a.27.27,0,0,0,.16.06H43.36v13a1.73,1.73,0,0,0,.52,1.26,1.78,1.78,0,0,0,2.49,0,1.72,1.72,0,0,0,.52-1.26v-13h3.56a2,2,0,0,0,0-3.87Z"/><path class="cls-1" d="M57.21,36.33h0Z"/><path class="cls-1" d="M57.15,36.37l-.09.07.14-.1Z"/><path class="cls-1" d="M60.06,37.52l-.32-.7a.47.47,0,0,0-.1-.14h0l0-.06-.15-.16a.5.5,0,0,0-.1-.08l0,0,0,0-.11-.07-.09,0a1.33,1.33,0,0,0-.31-.12h0l-.13,0-.15,0L58,36h0l-.15,0h0l-.72.39L57,36.5l-.09.09v0l0,0,0,0-.06.08,0,0-.06.11-.07.14-4.08,9.84H39.79V10.75a.21.21,0,0,0,0,0s0-.08,0-.12a1.93,1.93,0,0,0-3.87,0s0,.08,0,.12a.27.27,0,0,0,0,0V48.21a.26.26,0,0,0,0,.07,2.07,2.07,0,0,0,0,.22s0,.05,0,.08,0,.06,0,.09a1.75,1.75,0,0,0,1.17,1.69.13.13,0,0,0,.1.07H51.08l-.58,1.39a1.76,1.76,0,0,0,0,1.35,1.74,1.74,0,0,0,1,1l.33.13h.35a1.66,1.66,0,0,0,1.64-1.1l1.11-2.67h6.73l1.1,2.67a1.66,1.66,0,0,0,1.64,1.1,1.78,1.78,0,0,0,.68-.14,1.77,1.77,0,0,0,1-2.31ZM60.15,47H56.34l1.9-4.59Z"/><path class="cls-1" d="M69.5,54.26a1.72,1.72,0,0,0,1.26-.52,1.68,1.68,0,0,0,.53-1.25V44l4,6.59.74.77.22.06.09,0h0a1.91,1.91,0,0,0,.38.07h.37a1.63,1.63,0,0,0,.44-.12h0l.06-.06h.07l0,0,.08,0,.24-.16,0,0,.09-.08.16-.16.1-.13,0,0,.1-.11v0l4-6.57v8.48a1.7,1.7,0,0,0,.51,1.25,1.77,1.77,0,0,0,2.52,0,1.7,1.7,0,0,0,.51-1.25V37.65a1.7,1.7,0,0,0-.36-1.07,1.76,1.76,0,0,0-.94-.65l-.58-.15L83.5,36a1.72,1.72,0,0,0-.86.73l-5.81,9.59L71,36.73a1.78,1.78,0,0,0-2-.79,1.74,1.74,0,0,0-.94.64,1.71,1.71,0,0,0-.36,1.07V52.49a1.79,1.79,0,0,0,1.77,1.77Zm8-3.23h0Z"/><path class="cls-1" d="M98.18,58l-.58-.15L97,58.1a1.72,1.72,0,0,0-.86.73l-5.81,9.59-5.81-9.6a1.78,1.78,0,0,0-2-.79,1.74,1.74,0,0,0-.94.64,1.71,1.71,0,0,0-.36,1.07V74.6a1.79,1.79,0,0,0,1.77,1.77,1.72,1.72,0,0,0,1.26-.52,1.68,1.68,0,0,0,.53-1.25V66.12l4,6.59.74.77.22.06.09,0h0a1.91,1.91,0,0,0,.38.07h.37A1.63,1.63,0,0,0,91,73.5h0l.06-.06h.07l0,0,.07,0,.24-.16,0,0,.09-.08.16-.16.1-.13,0,0,.1-.11v0l4-6.57V74.6a1.7,1.7,0,0,0,.51,1.25,1.77,1.77,0,0,0,2.52,0,1.7,1.7,0,0,0,.51-1.25V59.75a1.7,1.7,0,0,0-.36-1.07A1.76,1.76,0,0,0,98.18,58Zm-7.1,15.1Z"/><path class="cls-1" d="M94.82,36.33l-.07,0,.06,0Z"/><path class="cls-1" d="M103.59,53.17a1.76,1.76,0,0,0,0-1.35l-5.93-14.3-.32-.7-.3-.36a.51.51,0,0,0-.1-.08l0,0,0,0-.11-.07-.09,0a1.33,1.33,0,0,0-.31-.12h0l-.13,0L96,36l-.43,0h0l-.15,0h0l-.63.32-.09.07-.07.06-.09.09v0l0,0,0,0-.06.08,0,0-.06.11-.07.14L89.68,48l-1.57,3.78a1.77,1.77,0,0,0,1,2.31l.33.13h.35a1.66,1.66,0,0,0,1.64-1.1l1.1-2.67h6.73l1.1,2.67a1.66,1.66,0,0,0,1.64,1.1,1.78,1.78,0,0,0,.68-.14A1.74,1.74,0,0,0,103.59,53.17ZM97.76,47H93.94l1.9-4.59Z"/><path class="cls-1" d="M97.34,36.82a.46.46,0,0,0-.09-.13Z"/><path class="cls-1" d="M97.24,36.67h0l-.05-.07Z"/><path class="cls-1" d="M134.87,59.49l-.32-.7-.3-.36a.5.5,0,0,0-.1-.08l0,0,0,0L134,58.2l-.09,0a1.33,1.33,0,0,0-.31-.12h0l-.13,0-.15,0-.43,0h0l-.15,0h0l-.63.32-.09.07-.07.06-.09.09v0l0,0,0,0-.06.08,0,0-.06.11-.07.14-4.54,11-1.57,3.78a1.77,1.77,0,0,0,1,2.31l.33.13h.35a1.66,1.66,0,0,0,1.64-1.1l1.11-2.67h6.73l1.1,2.67a1.66,1.66,0,0,0,1.64,1.1,1.78,1.78,0,0,0,.68-.14,1.77,1.77,0,0,0,1-2.31Zm.09,9.45h-3.81l1.9-4.59Z"/><path class="cls-1" d="M134.44,58.65h0l-.05-.07Z"/><path class="cls-1" d="M132,58.3l-.07,0,.06,0Z"/><path class="cls-1" d="M134.55,58.79a.47.47,0,0,0-.1-.13Z"/><path class="cls-1" d="M116.41,53.74a1.78,1.78,0,0,0,0-2.49,1.73,1.73,0,0,0-1.26-.52h-6.22v-13a1.77,1.77,0,0,0-3.54,0V52.49a1.79,1.79,0,0,0,1.77,1.77h8A1.73,1.73,0,0,0,116.41,53.74Z"/><path class="cls-1" d="M120,54.26a1.72,1.72,0,0,0,1.26-.52,1.68,1.68,0,0,0,.53-1.25V46.86h5.07a1.75,1.75,0,0,0,1.26-.51,1.77,1.77,0,0,0,0-2.52,1.75,1.75,0,0,0-1.26-.51h-5.07V39.46l7.16,0a1.79,1.79,0,0,0,1.77-1.77,1.75,1.75,0,0,0-.51-1.26,1.72,1.72,0,0,0-1.26-.52l-8.94,0a1.68,1.68,0,0,0-1.24.52,1.7,1.7,0,0,0-.53,1.26V52.49A1.79,1.79,0,0,0,120,54.26Z"/><path class="cls-1" d="M133.9,54.26a1.79,1.79,0,0,0,1.77-1.77V37.76a1.77,1.77,0,0,0-3.54,0V52.49a1.79,1.79,0,0,0,1.77,1.77Z"/><path class="cls-1" d="M63.61,61.49a1.79,1.79,0,0,0,1.77-1.77,1.75,1.75,0,0,0-.51-1.26,1.73,1.73,0,0,0-1.26-.52l-8.94,0a1.68,1.68,0,0,0-1.24.52,1.7,1.7,0,0,0-.53,1.26V74.5a1.79,1.79,0,0,0,1.77,1.77h8.94a1.79,1.79,0,0,0,1.77-1.77,1.72,1.72,0,0,0-.52-1.26,1.68,1.68,0,0,0-1.25-.53H56.45V68.86h5.07a1.75,1.75,0,0,0,1.26-.51,1.78,1.78,0,0,0,0-2.52,1.75,1.75,0,0,0-1.26-.51H56.45V61.46Z"/><path class="cls-1" d="M78.39,66.51a5.07,5.07,0,0,0,1.08-3.14,5.12,5.12,0,0,0-1.72-3.87,5.81,5.81,0,0,0-4.1-1.59H68.53a1.77,1.77,0,0,0-1.76,1.77V74.4a1.75,1.75,0,0,0,1.76,1.76A1.77,1.77,0,0,0,70.3,74.4V68.82h2l3.18,6.45a1.66,1.66,0,0,0,1.58,1,1.79,1.79,0,0,0,.78-.18,1.79,1.79,0,0,0,.81-2.36L76,68.36A5.59,5.59,0,0,0,78.39,66.51Zm-2.45-3.14a1.71,1.71,0,0,1-.62,1.32,2.45,2.45,0,0,1-1.57.6H70.3V61.44h3.34a2.41,2.41,0,0,1,1.64.58A1.71,1.71,0,0,1,75.94,63.37Z"/><path class="cls-1" d="M104.08,58a1.79,1.79,0,0,0-1.77,1.77V74.5a1.77,1.77,0,0,0,3.54,0V59.76A1.79,1.79,0,0,0,104.08,58Z"/><path class="cls-1" d="M121.66,57.93a1.72,1.72,0,0,0-1.26.52,1.7,1.7,0,0,0-.51,1.25v9.63l-8.31-10.71a1.74,1.74,0,0,0-.89-.62,1.78,1.78,0,0,0-2.28,1.7V74.5a1.77,1.77,0,0,0,3.54,0V64.88l8.2,10.55.05.07.14.21.06,0,.13.12.06,0,.08.06.07.05.07,0h0l.1.05.09,0,.09,0,.09,0,.12,0h.07l.07,0h.44l.07,0,.19,0,.09,0h0l.14-.06.1,0,.22-.14,0,0h0l.06-.05.07-.06.06-.07.1-.12,0-.07,0,0,.12-.25,0-.1,0-.05a.57.57,0,0,0,0-.13v0a.51.51,0,0,0,0-.12.57.57,0,0,0,0-.11v0a.52.52,0,0,0,0-.11V59.7a1.79,1.79,0,0,0-1.77-1.77Z"/><path class="cls-1" d="M153.29,73.25a1.73,1.73,0,0,0-1.26-.52h-6.22v-13a1.77,1.77,0,0,0-3.54,0V74.5A1.79,1.79,0,0,0,144,76.27h8a1.72,1.72,0,0,0,1.26-.52,1.78,1.78,0,0,0,0-2.49Z"/><path class="cls-1" d="M14.29,18.32a1.94,1.94,0,1,0-3.86.22.27.27,0,0,0,0,.07v35s0,0,0,0,0,.08,0,.12a1.94,1.94,0,1,0,3.87,0s0-.08,0-.12a.23.23,0,0,0,0,0v-35a.28.28,0,0,0,0-.07A2,2,0,0,0,14.29,18.32Z"/></g></g></svg>