<svg xmlns="http://www.w3.org/2000/svg" viewBox="0 0 169.53 97.46"><defs><style>.cls-1{fill:#1797cd;}.cls-2{fill:#f28e00;}.cls-3{fill:#a783ba;}.cls-4{fill:#003d6a;}.cls-5{fill:#27a536;}</style></defs><title>logo</title><g id="Layer_2" data-name="Layer 2"><g id="Livello_1" data-name="Livello 1"><path class="cls-1" d="M40.73,91a.54.54,0,0,0-.53.53v5.39a.53.53,0,0,0,1.07,0V91.54a.54.54,0,0,0-.53-.53Z"/><path class="cls-1" d="M46.44,91H42.68a.52.52,0,0,0-.38.16.54.54,0,0,0,0,.75.52.52,0,0,0,.38.16H44v4.89a.52.52,0,0,0,.16.38.53.53,0,0,0,.75,0,.52.52,0,0,0,.16-.38V92h1.35a.53.53,0,0,0,0-1.07Z"/><path class="cls-1" d="M52.29,95.35h0l-1.66-4,0,0v0l0,0v0l0,0v0l0,0h0l0,0h0l0,0h0l-.1,0h-.45l0,0h0l0,0h0l0,0v0l0,0v0l0,0v0l0,0-1.66,4h0l-.57,1.38a.53.53,0,0,0,.29.7l.1,0h.1a.49.49,0,0,0,.49-.33l.43-1h2.62l.43,1a.49.49,0,0,0,.49.33.53.53,0,0,0,.2,0,.52.52,0,0,0,.29-.29.53.53,0,0,0,0-.41Zm-3-.33.87-2.1L51,95Z"/><path class="cls-1" d="M57.34,96.39H54.95V91.51a.53.53,0,0,0-1.07,0v5.41a.54.54,0,0,0,.53.53h2.92a.52.52,0,0,0,.38-.16.53.53,0,0,0,0-.75A.52.52,0,0,0,57.34,96.39Z"/><path class="cls-1" d="M59.26,91a.54.54,0,0,0-.53.53v5.39a.53.53,0,0,0,1.07,0V91.54a.54.54,0,0,0-.53-.53Z"/><path class="cls-1" d="M65.73,95.35h0l-1.66-4,0,0v0l0,0v0l0,0v0l0,0h0l0,0h0l0,0h0l-.1,0h-.45l0,0h0l0,0h0l0,0v0l0,0v0l0,0v0l0,0-1.66,4h0l-.57,1.38a.53.53,0,0,0,.29.7l.1,0h.1a.49.49,0,0,0,.49-.33l.43-1h2.62l.43,1a.49.49,0,0,0,.49.33.53.53,0,0,0,.2,0,.52.52,0,0,0,.29-.29.53.53,0,0,0,0-.41Zm-3-.33.87-2.1.87,2.1Z"/><path class="cls-1" d="M72,91a.52.52,0,0,0-.38.16.51.51,0,0,0-.15.38v3.86l-3.25-4.18A.52.52,0,0,0,68,91a.5.5,0,0,0-.33,0,.53.53,0,0,0-.36.5v5.41a.53.53,0,0,0,1.07,0V93.07l3.25,4.18h0v0l0,0h0l0,0h0l0,0h.38l.08,0h0l.07,0h0l.07,0h0l0,0,0,0,0,0,0,0v0l0,0h0V97a.06.06,0,0,0,0,0v-5.5A.54.54,0,0,0,72,91Z"/><path class="cls-1" d="M80.17,91H76.89a.5.5,0,0,0-.37.16.51.51,0,0,0-.16.38v5.42a.54.54,0,0,0,.53.53.52.52,0,0,0,.38-.16.5.5,0,0,0,.16-.38V94.75h2a.53.53,0,0,0,.38-.15.53.53,0,0,0,0-.76.53.53,0,0,0-.38-.15h-2V92h2.73a.54.54,0,0,0,.53-.53.53.53,0,0,0-.15-.38A.52.52,0,0,0,80.17,91Z"/><path class="cls-1" d="M84.46,91a3.24,3.24,0,1,0,2.3.95A3.12,3.12,0,0,0,84.46,91ZM86,95.75a2.18,2.18,0,1,1,.64-1.54A2.1,2.1,0,0,1,86,95.75Z"/><path class="cls-1" d="M91.89,91a3.24,3.24,0,1,0,2.3.95A3.12,3.12,0,0,0,91.89,91Zm1.54,4.78a2.18,2.18,0,1,1,.64-1.54A2.1,2.1,0,0,1,93.43,95.75Z"/><path class="cls-1" d="M98.35,91H97a.51.51,0,0,0-.37.15.52.52,0,0,0-.16.38v5.41a.53.53,0,0,0,.53.53h0l1.36,0a3.23,3.23,0,1,0,0-6.46Zm1.53,4.75a2.09,2.09,0,0,1-1.53.63h-.83V92.05h.83a2.16,2.16,0,0,1,1.53,3.69Z"/><path class="cls-1" d="M108.45,93.85a1.63,1.63,0,1,0-2.67-1.26,1.59,1.59,0,0,0,.33,1,2,2,0,0,0-.84.74,2,2,0,0,0-.32,1.1,2,2,0,0,0,2,2,2,2,0,0,0,1.85-1.19l.65.89a.53.53,0,0,0,.45.23.54.54,0,0,0,.54-.47.53.53,0,0,0-.1-.41Zm-.79,2.24a.94.94,0,1,1-1.33-1.33.94.94,0,0,1,1.33,1.33Zm.12-3.12a.5.5,0,0,1-.37.15A.51.51,0,0,1,107,93a.52.52,0,0,1-.15-.38.53.53,0,0,1,.53-.53.49.49,0,0,1,.37.16.5.5,0,0,1,.15.37A.52.52,0,0,1,107.78,93Z"/><path class="cls-1" d="M117.29,96.39H114.9V91.51a.53.53,0,0,0-1.07,0v5.41a.54.54,0,0,0,.53.53h2.92a.53.53,0,0,0,.53-.53.51.51,0,0,0-.15-.38A.52.52,0,0,0,117.29,96.39Z"/><path class="cls-1" d="M121.55,91a3.24,3.24,0,1,0,2.3.95A3.12,3.12,0,0,0,121.55,91Zm1.54,4.78a2.18,2.18,0,1,1,.64-1.54A2.1,2.1,0,0,1,123.09,95.75Z"/><path class="cls-1" d="M130.11,91a.53.53,0,0,0-.52.52v3.64a1.26,1.26,0,1,1-2.53,0V91.51a.52.52,0,0,0-1,0v3.64a2.31,2.31,0,1,0,4.62,0V91.51a.52.52,0,0,0-.52-.52Z"/><path class="cls-1" d="M136.8,91a.52.52,0,0,0-.38.16.51.51,0,0,0-.15.38v3.86L133,91.19a.52.52,0,0,0-.27-.19.5.5,0,0,0-.33,0,.53.53,0,0,0-.36.5v5.41a.53.53,0,0,0,1.07,0V93.07l3.25,4.18h0v0l0,0h0l0,0h0l0,0h.38l.08,0h0l.07,0h0l.07,0h0l0,0,0,0,0,0,0,0v0l0,0h0V97a.06.06,0,0,0,0,0v-5.5a.54.54,0,0,0-.53-.53Z"/><path class="cls-1" d="M143.72,93.53h-2.3a.51.51,0,0,0-.38.16.53.53,0,0,0,.38.91h1.77v1.18l0,0A2.16,2.16,0,1,1,143,92.5a.54.54,0,0,0,.75-.1.52.52,0,0,0,.11-.39.53.53,0,0,0-.21-.36,3.23,3.23,0,0,0-4.25.28,3.23,3.23,0,0,0,2.29,5.52,3.2,3.2,0,0,0,1.5-.37.5.5,0,0,0,.19.28.52.52,0,0,0,.33.11h0a.54.54,0,0,0,.53-.53V94.06a.54.54,0,0,0-.54-.54Z"/><path class="cls-1" d="M149.37,92.05h0a.54.54,0,0,0,.53-.53.52.52,0,0,0-.15-.38.52.52,0,0,0-.38-.16H146.1a.54.54,0,0,0-.53.54v5.42a.54.54,0,0,0,.53.53h3.27a.54.54,0,0,0,.53-.53.52.52,0,0,0-.16-.38.5.5,0,0,0-.38-.16h-2.73V94.75h2a.53.53,0,0,0,.38-.15.53.53,0,0,0,0-.76.53.53,0,0,0-.38-.15h-2V92Z"/><path class="cls-1" d="M157.1,94.17a1.79,1.79,0,0,0,.56-1.31,1.74,1.74,0,0,0-.58-1.33,2,2,0,0,0-1.44-.54h-1.9a.54.54,0,0,0-.37.16.52.52,0,0,0-.15.37v5.4a.54.54,0,0,0,.53.53h2a2,2,0,0,0,1.43-.56,1.77,1.77,0,0,0,.6-1.34A1.73,1.73,0,0,0,157.1,94.17Zm-2.82-2.11h1.36a1,1,0,0,1,.67.23.71.71,0,0,1,.28.57.78.78,0,0,1-.28.6,1,1,0,0,1-.67.25h-1.36Zm2.15,4.09a1,1,0,0,1-.68.24h-1.47V94.77h1.48a1,1,0,0,1,.67.23.71.71,0,0,1,.28.56A.74.74,0,0,1,156.42,96.15Z"/><path class="cls-1" d="M163.56,95.35h0l-1.66-4,0,0v0l0,0v0l0,0v0l0,0h0l0,0h0l0,0h0l-.1,0h-.45l0,0h0l0,0h0l0,0v0l0,0v0l0,0v0l0,0-1.66,4h0l-.57,1.38a.53.53,0,0,0,0,.41.53.53,0,0,0,.29.29l.1,0h.1a.49.49,0,0,0,.49-.33l.43-1h2.62l.43,1a.49.49,0,0,0,.49.33.53.53,0,0,0,.2,0,.53.53,0,0,0,.29-.7Zm-3-.33.87-2.1.87,2.1Z"/><path class="cls-1" d="M168.22,94.62a1.94,1.94,0,0,0,.94-.68,1.73,1.73,0,0,0,.37-1.08,1.76,1.76,0,0,0-.59-1.33,2,2,0,0,0-1.42-.55h-1.87a.53.53,0,0,0-.53.53v5.39a.53.53,0,0,0,.53.53.53.53,0,0,0,.53-.53V94.74h.92l1.2,2.43a.49.49,0,0,0,.47.3.54.54,0,0,0,.24-.05.54.54,0,0,0,.24-.71Zm-.67-.94h-1.37V92h1.34a1,1,0,0,1,.67.24.74.74,0,0,1,0,1.15A1,1,0,0,1,167.55,93.67Z"/><path class="cls-2" d="M92.1,29.74H5.67a2.13,2.13,0,0,0,0,4.26H92.1a2.13,2.13,0,0,0,0-4.26Z"/><path class="cls-1" d="M52,39.47H31.69a2.13,2.13,0,0,0-2.13,2.13s0,.09,0,.13,0,0,0,0V94.69a.33.33,0,0,0,0,.07,2.2,2.2,0,0,0,0,.24,2.13,2.13,0,1,0,4.26,0,2.2,2.2,0,0,0,0-.24.31.31,0,0,0,0-.07v-51H52a2.13,2.13,0,1,0,0-4.26Z"/><path class="cls-1" d="M54.1,2.13a2.13,2.13,0,0,0-4.26,0s0,.09,0,.13,0,0,0,0v39a.29.29,0,0,0,0,.07,2.19,2.19,0,0,0,0,.24,2.13,2.13,0,1,0,4.26,0,2.19,2.19,0,0,0,0-.24.34.34,0,0,0,0-.07v-39a.25.25,0,0,0,0,0S54.1,2.17,54.1,2.13Z"/><path class="cls-3" d="M120.42,21H23.64a2.13,2.13,0,0,0,0,4.26h96.78a2.13,2.13,0,0,0,0-4.26Z"/><path class="cls-4" d="M55.55,63.45h-32v-18a.24.24,0,0,0,0,0s0-.09,0-.13a2.13,2.13,0,0,0-2.13-2.13H2.13a2.13,2.13,0,1,0,0,4.26H19.26V65.26a.3.3,0,0,0,0,.07,2.1,2.1,0,0,0,0,.24,2.13,2.13,0,0,0,1.34,2l.23.09a.29.29,0,0,0,.18.06H47.73V82a1.9,1.9,0,0,0,.58,1.39,2,2,0,0,0,2.75,0A1.9,1.9,0,0,0,51.63,82V67.7h3.92a2.15,2.15,0,0,0,0-4.26Z"/><path class="cls-4" d="M63,40l0,0h0Z"/><path class="cls-4" d="M62.91,40l-.1.08L63,40Z"/><path class="cls-4" d="M66.12,41.3l-.36-.77a.52.52,0,0,0-.11-.15h0l0-.07-.17-.17a.55.55,0,0,0-.11-.09l0,0,0,0-.12-.08-.1-.05a1.47,1.47,0,0,0-.34-.13h0l-.14,0-.17,0-.48,0h0l-.16,0h0l-.8.43-.08.06-.1.1v0l0,0,0,.05-.06.09,0,0-.06.12-.08.16L57.83,51.64h-14V11.83a.24.24,0,0,0,0,0s0-.09,0-.13a2.13,2.13,0,0,0-4.26,0s0,.09,0,.13a.3.3,0,0,0,0,0V53.08a.28.28,0,0,0,0,.07,2.28,2.28,0,0,0,0,.24s0,.06,0,.09,0,.06,0,.1a1.93,1.93,0,0,0,1.29,1.86.14.14,0,0,0,.11.08H56.23L55.59,57a1.94,1.94,0,0,0,0,1.49,1.92,1.92,0,0,0,1.06,1.06l.36.15h.38a1.83,1.83,0,0,0,1.8-1.21l1.22-2.94h7.41L69,58.53a1.83,1.83,0,0,0,1.8,1.21,2,2,0,0,0,.75-.15A2,2,0,0,0,72.64,57Zm.1,10.4H62l2.09-5.06Z"/><path class="cls-4" d="M76.51,59.74a1.89,1.89,0,0,0,1.38-.57,1.85,1.85,0,0,0,.58-1.38V48.45l4.38,7.25.81.85.24.06.1,0h0a2.11,2.11,0,0,0,.41.08h.41a1.79,1.79,0,0,0,.48-.13h0l.07-.07h.07l-.05,0,.08,0,.27-.18,0,0,.1-.09.17-.17.11-.15,0,0,.11-.13v0l4.38-7.23v9.34a1.88,1.88,0,0,0,.56,1.37,2,2,0,0,0,2.77,0,1.88,1.88,0,0,0,.56-1.37V41.45a1.87,1.87,0,0,0-.4-1.17,1.93,1.93,0,0,0-1-.71l-.64-.16-.61.23a1.89,1.89,0,0,0-.94.81L84.59,51,78.19,40.44a2,2,0,0,0-2.2-.87,1.92,1.92,0,0,0-1,.71,1.88,1.88,0,0,0-.4,1.18V57.79a2,2,0,0,0,1.95,2Zm8.84-3.55h0Z"/><path class="cls-4" d="M108.08,63.89l-.64-.16-.61.23a1.89,1.89,0,0,0-.94.81L99.5,75.33,93.11,64.77a2,2,0,0,0-2.2-.87,1.92,1.92,0,0,0-1,.71,1.88,1.88,0,0,0-.4,1.18V82.12a2,2,0,0,0,2,2,1.89,1.89,0,0,0,1.38-.57,1.85,1.85,0,0,0,.58-1.38V72.79L97.77,80l.81.85.24.06.1,0h0a2.11,2.11,0,0,0,.41.08h.41a1.79,1.79,0,0,0,.48-.13h0l.07-.07h.07l-.05,0,.08,0,.27-.18,0,0,.1-.09.17-.17.11-.15,0,0,.11-.13v0l4.38-7.23v9.34a1.88,1.88,0,0,0,.56,1.37,2,2,0,0,0,2.77,0,1.87,1.87,0,0,0,.56-1.37V65.78a1.87,1.87,0,0,0-.4-1.17A1.93,1.93,0,0,0,108.08,63.89Zm-7.81,16.62Z"/><path class="cls-4" d="M104.38,40l-.07.05.07,0Z"/><path class="cls-4" d="M114,58.53A1.93,1.93,0,0,0,114,57L107.52,41.3l-.36-.77-.33-.4a.56.56,0,0,0-.11-.09l0,0,0,0-.12-.08-.1-.05a1.46,1.46,0,0,0-.34-.13h0l-.14,0-.17,0-.48,0h0l-.16,0h0l-.7.36-.1.08-.08.06-.1.1v0l0,0,0,.05-.06.09,0,0-.06.12-.08.16-5,12.07L97,57a1.95,1.95,0,0,0,1.06,2.54l.36.15h.38a1.83,1.83,0,0,0,1.8-1.21l1.22-2.94h7.41l1.22,2.94a1.83,1.83,0,0,0,1.8,1.21,2,2,0,0,0,.75-.15A1.92,1.92,0,0,0,114,58.53Zm-6.43-6.82h-4.2l2.09-5.06Z"/><path class="cls-4" d="M107.16,40.53a.51.51,0,0,0-.1-.15Z"/><path class="cls-4" d="M107,40.37h0L107,40.3Z"/><path class="cls-4" d="M148.47,65.49l-.36-.77-.33-.4a.55.55,0,0,0-.11-.09l0,0,0,0-.12-.08-.1-.05a1.46,1.46,0,0,0-.34-.13h0l-.14,0-.17,0-.48,0h0l-.16,0h0l-.7.36-.1.08-.08.06-.1.1v0l0,0,0,.05-.06.09,0,0-.06.12-.08.16-5,12.07-1.73,4.16A1.95,1.95,0,0,0,139,83.78l.36.15h.38a1.83,1.83,0,0,0,1.8-1.21l1.22-2.94h7.41l1.22,2.94a1.83,1.83,0,0,0,1.8,1.21,2,2,0,0,0,.75-.15A1.95,1.95,0,0,0,155,81.23Zm.1,10.4h-4.2l2.09-5.06Z"/><path class="cls-4" d="M148,64.56h0l-.06-.08Z"/><path class="cls-4" d="M145.34,64.18l-.08.05.07,0Z"/><path class="cls-4" d="M148.11,64.72a.51.51,0,0,0-.1-.15Z"/><path class="cls-4" d="M128.15,59.16a2,2,0,0,0,0-2.75,1.9,1.9,0,0,0-1.39-.58h-6.84V41.5a2,2,0,0,0-3.9,0V57.79a2,2,0,0,0,2,2h8.79A1.9,1.9,0,0,0,128.15,59.16Z"/><path class="cls-4" d="M132.09,59.74a1.89,1.89,0,0,0,1.38-.57,1.85,1.85,0,0,0,.58-1.38V51.58h5.58A1.93,1.93,0,0,0,141,51a2,2,0,0,0,0-2.78,1.92,1.92,0,0,0-1.38-.56h-5.58V43.44l7.88,0a2,2,0,0,0,1.95-2,1.93,1.93,0,0,0-.56-1.39,1.9,1.9,0,0,0-1.39-.58l-9.84,0a1.85,1.85,0,0,0-1.37.57,1.87,1.87,0,0,0-.58,1.39v16.3a2,2,0,0,0,1.95,2Z"/><path class="cls-4" d="M147.4,59.74a2,2,0,0,0,2-2V41.57a2,2,0,0,0-3.9,0V57.79a2,2,0,0,0,1.95,2Z"/><path class="cls-4" d="M70,67.69a2,2,0,0,0,2-2,1.93,1.93,0,0,0-.56-1.39A1.9,1.9,0,0,0,70,63.77l-9.84,0a1.85,1.85,0,0,0-1.37.57,1.87,1.87,0,0,0-.58,1.39V82a2,2,0,0,0,1.95,2H70a2,2,0,0,0,2-2,1.9,1.9,0,0,0-.57-1.38A1.85,1.85,0,0,0,70,80H62.15V75.8h5.58a1.93,1.93,0,0,0,1.39-.56,2,2,0,0,0,0-2.78,1.92,1.92,0,0,0-1.38-.56H62.15V67.66Z"/><path class="cls-4" d="M86.3,73.22a5.58,5.58,0,0,0,1.19-3.46,5.64,5.64,0,0,0-1.89-4.26,6.39,6.39,0,0,0-4.52-1.75H75.44a1.95,1.95,0,0,0-1.94,2V81.9a1.92,1.92,0,0,0,1.94,1.94,1.95,1.95,0,0,0,1.95-1.94V75.76h2.2l3.51,7.1A1.83,1.83,0,0,0,84.84,84a2,2,0,0,0,.86-.2,2,2,0,0,0,.89-2.6l-2.92-5.91A6.15,6.15,0,0,0,86.3,73.22Zm-2.7-3.46a1.88,1.88,0,0,1-.68,1.45,2.69,2.69,0,0,1-1.73.66H77.39V67.63h3.68a2.66,2.66,0,0,1,1.8.64A1.88,1.88,0,0,1,83.59,69.76Z"/><path class="cls-4" d="M114.57,63.84a2,2,0,0,0-1.95,2V82a2,2,0,0,0,3.9,0V65.79a2,2,0,0,0-2-2Z"/><path class="cls-4" d="M133.93,63.77a1.9,1.9,0,0,0-1.39.58,1.87,1.87,0,0,0-.56,1.37v10.6l-9.15-11.79a1.91,1.91,0,0,0-1-.68,2,2,0,0,0-2.51,1.87V82a2,2,0,0,0,3.9,0V71.42l9,11.61.06.08.15.23.07,0,.15.13.07.05.09.06.08.06.08,0h0l.11.06.1,0,.1,0,.1,0,.13,0h.07l.08,0h.21l.27,0,.08,0,.21,0,.1,0h0l.16-.07.11,0,.24-.16,0,0h0l.07-.06.08-.07.07-.07.11-.13.05-.08.05-.05.14-.27a.67.67,0,0,0,0-.11l0-.06a.63.63,0,0,0,0-.15v0a.57.57,0,0,0,0-.13.63.63,0,0,0,0-.13v0a.57.57,0,0,0,0-.12V65.72a2,2,0,0,0-2-2Z"/><path class="cls-4" d="M168.74,80.64a1.9,1.9,0,0,0-1.39-.58h-6.84V65.72a2,2,0,0,0-3.9,0V82a2,2,0,0,0,2,2h8.79a1.9,1.9,0,0,0,1.39-.58,2,2,0,0,0,0-2.75Z"/><path class="cls-5" d="M15.73,20.16a2.13,2.13,0,1,0-4.25.24.3.3,0,0,0,0,.07V59s0,0,0,0,0,.09,0,.13a2.13,2.13,0,1,0,4.26,0s0-.09,0-.13a.25.25,0,0,0,0,0V20.48a.31.31,0,0,0,0-.07A2.22,2.22,0,0,0,15.73,20.16Z"/></g></g></svg>