<svg xmlns="http://www.w3.org/2000/svg" viewBox="0 0 51.23 51.22"><defs><style>.cls-1{fill:#27a536;}.cls-2{fill:#fff;}</style></defs><title>meat</title><g id="Livello_2" data-name="Livello 2"><g id="Livello_1-2" data-name="Livello 1"><ellipse class="cls-1" cx="25.61" cy="25.61" rx="25.61" ry="25.61"/><path class="cls-2" d="M4.26,19.84c.56-3.88,5.57-7.17,5.57-7.17s-3.07,5.42-2.51,7.19,5.67,3.36,7.77,0c4.39-7,10.2-3.25,10.84-3.3h0c.63,0,5.28-3.72,10.83,3.3,2.44,3.09,7.21,1.78,7.77,0s-2.51-7.19-2.51-7.19,5,3.29,5.57,7.17S43.74,26.71,41.8,27s-5.3-1.2-9.19-3.59c-3.61-2.21-6.26-1.6-6.63-1.5h0c-.37-.1-3-.71-6.64,1.5-3.9,2.39-7.24,3.89-9.18,3.59S3.7,23.73,4.26,19.84Z"/><path class="cls-2" d="M17,34.87c0,3.7,3.87,6.7,8.65,6.7s8.65-3,8.65-6.7-3.87-6.71-8.65-6.71S17,31.16,17,34.87Z"/><path class="cls-1" d="M19,33.29A2.33,2.33,0,1,0,21.36,31,2.33,2.33,0,0,0,19,33.29Z"/><circle class="cls-1" cx="29.79" cy="33.29" r="1.69"/></g></g></svg>