<svg xmlns="http://www.w3.org/2000/svg" viewBox="0 0 40.15 40.15"><defs><style>.cls-1{fill:#e8d442;}.cls-2{fill:#fff;}</style></defs><title>menu baby</title><g id="Livello_2" data-name="Livello 2"><g id="Livello_1-2" data-name="Livello 1"><path class="cls-1" d="M40.15,20.07A20.07,20.07,0,1,0,20.07,40.15,20.07,20.07,0,0,0,40.15,20.07"/><path class="cls-2" d="M18,8.57h0Z"/><path class="cls-2" d="M33.2,19.54a1.66,1.66,0,0,1-.79-1,12,12,0,0,0-9.19-9.65c-.83-.23-1.69-.34-2.56-.51a4.92,4.92,0,0,1,1.86-3.58c.25-.2.71-.59.49-.93-.4-.39-.86-.08-1.13.1a5.24,5.24,0,0,0-2.16,3.45c-.07.31-.16.61-.31,1.2a3.89,3.89,0,0,0-3.52-2.55c-.37,0-1.11-.11-1.15.5s.77.41,1.14.47c2.19.35,2.36.89,2.14,1.49h0a2.6,2.6,0,0,1-.32.14l-.81.22a12.08,12.08,0,0,0-9.15,9.56,1.83,1.83,0,0,1-.83,1.08A2.92,2.92,0,0,0,5.15,22.2,2.85,2.85,0,0,0,6.8,24.79a2.26,2.26,0,0,1,.93,1.08,10.49,10.49,0,0,0,3.52,4.88,14.68,14.68,0,0,0,11.93,2.47c4.43-.86,7.79-3.13,9.31-7.63a1.62,1.62,0,0,1,.79-.78A2.8,2.8,0,0,0,35,22.16,2.92,2.92,0,0,0,33.2,19.54ZM32.55,24c-.36.16-.81.47-.91.8-1.21,4.18-4.18,6.39-8.23,7.29a14.38,14.38,0,0,1-10-1.2,9.5,9.5,0,0,1-5-6.72c-1.55-.35-2.15-.95-2.1-2s.7-1.6,2.34-1.8A10.77,10.77,0,0,1,13,11.94a11.49,11.49,0,0,1,8.09-2.32A11.22,11.22,0,0,1,31.53,20.28l.76.11a1.73,1.73,0,0,1,1.57,1.68A1.85,1.85,0,0,1,32.55,24Z"/><path class="cls-2" d="M17,21a1.86,1.86,0,0,0-1.82-1.71,1.76,1.76,0,1,0,.11,3.52A1.85,1.85,0,0,0,17,21Z"/><path class="cls-2" d="M24.38,19.25A1.76,1.76,0,1,0,26.19,21,1.86,1.86,0,0,0,24.38,19.25Z"/><path class="cls-2" d="M24,26.37a.57.57,0,0,0-.44.07,6.78,6.78,0,0,1-3.53.89,6.75,6.75,0,0,1-3.52-.89.57.57,0,0,0-.45-.07.58.58,0,0,0-.36.26.57.57,0,0,0-.07.45.58.58,0,0,0,.27.36,7.89,7.89,0,0,0,4.12,1.06,7.92,7.92,0,0,0,4.13-1.06.57.57,0,0,0,.28-.5.6.6,0,0,0-.08-.31A.58.58,0,0,0,24,26.37Z"/></g></g></svg>