<svg xmlns="http://www.w3.org/2000/svg" viewBox="0 0 22.65 34.1"><defs><style>.cls-1{fill:#fff;}.cls-2{fill:#768cae;}</style></defs><title>mouse_ico</title><g id="Layer_2" data-name="Layer 2"><g id="Livello_1" data-name="Livello 1"><path class="cls-1" d="M10.81,1.4A9.42,9.42,0,0,0,1.4,10.81V23.29a9.42,9.42,0,0,0,9.41,9.41h1a9.42,9.42,0,0,0,9.41-9.41V10.81A9.42,9.42,0,0,0,11.85,1.4Z"/><path class="cls-1" d="M11.33,14.23a.7.7,0,0,1-.7-.7V7.66a.7.7,0,1,1,1.4,0v5.87A.7.7,0,0,1,11.33,14.23Z"/><path class="cls-2" d="M11.85,34.1h-1A10.82,10.82,0,0,1,0,23.29V10.81A10.82,10.82,0,0,1,10.81,0h1A10.82,10.82,0,0,1,22.65,10.81V23.29A10.82,10.82,0,0,1,11.85,34.1Zm-1-32.7A9.42,9.42,0,0,0,1.4,10.81V23.29a9.42,9.42,0,0,0,9.41,9.41h1a9.42,9.42,0,0,0,9.41-9.41V10.81A9.42,9.42,0,0,0,11.85,1.4Z"/><path class="cls-2" d="M11.33,14.23a.7.7,0,0,1-.7-.7V7.66a.7.7,0,1,1,1.4,0v5.87A.7.7,0,0,1,11.33,14.23Z"/></g></g></svg>