<svg xmlns="http://www.w3.org/2000/svg" viewBox="0 0 51.56 51.56"><defs><style>.cls-1{fill:#f28e00;}.cls-2{fill:#fff;}</style></defs><title>pizzeria</title><g id="Livello_2" data-name="Livello 2"><g id="Livello_1-2" data-name="Livello 1"><circle class="cls-1" cx="25.78" cy="25.78" r="25.78"/><path class="cls-2" d="M38.83,27.79s3.54-.76,3.85-2.15C43.29,22.85,28.93,9.44,18.32,11c-1.67.24-.06,4.4-.06,4.4A25.76,25.76,0,0,1,38.83,27.79Zm0,0"/><path class="cls-2" d="M18.25,16.64S15.93,38,17.94,39.57c1.64,1.25,19.86-11.11,19.86-11.11A24.47,24.47,0,0,0,18.25,16.64Zm5.23,2.1a1.66,1.66,0,1,1-1.68,1.64,1.67,1.67,0,0,1,1.68-1.64Zm0,5.94a1.15,1.15,0,1,1-1.16,1.13,1.15,1.15,0,0,1,1.16-1.13Zm-2,9.77a1.15,1.15,0,1,1-1.15,1.13,1.14,1.14,0,0,1,1.15-1.13ZM29,23.53a1.15,1.15,0,1,1-1.16,1.13A1.15,1.15,0,0,1,29,23.53Zm-7.77,9.11A1.73,1.73,0,1,1,23,30.95a1.72,1.72,0,0,1-1.75,1.7Zm7.22-1.79a1.66,1.66,0,1,1,1.69-1.64,1.66,1.66,0,0,1-1.69,1.64Z"/></g></g></svg>