<svg xmlns="http://www.w3.org/2000/svg" viewBox="0 0 51.56 51.56"><defs><style>.cls-1{fill:#1797cd;}.cls-2{fill:#fff;}</style></defs><title>sea</title><g id="Livello_2" data-name="Livello 2"><g id="Livello_1-2" data-name="Livello 1"><path class="cls-1" d="M51.56,25.78A25.78,25.78,0,1,0,25.78,51.56,25.78,25.78,0,0,0,51.56,25.78Z"/><path class="cls-2" d="M41.6,34.45V22.3a1,1,0,0,0-1.12-1,7.12,7.12,0,0,0-5.62,4.73A13.32,13.32,0,0,0,24.13,20.5,13.47,13.47,0,0,0,12.3,27.82a1.19,1.19,0,0,0,0,1.12,13.5,13.5,0,0,0,11.83,7.31,13.29,13.29,0,0,0,10.73-5.58,7.12,7.12,0,0,0,5.62,4.73,1,1,0,0,0,1.12-1ZM18.89,27.88a1.49,1.49,0,1,1,1.48-1.49,1.48,1.48,0,0,1-1.48,1.49Zm0,0"/><path class="cls-2" d="M10.68,23.47A1.48,1.48,0,1,1,12.16,22a1.49,1.49,0,0,1-1.48,1.48Z"/><path class="cls-2" d="M11.49,16.89a2.29,2.29,0,1,1,2.29-2.3,2.3,2.3,0,0,1-2.29,2.3Z"/><path class="cls-2" d="M19,13.49a3.2,3.2,0,1,1,3.2-3.19A3.2,3.2,0,0,1,19,13.49Z"/></g></g></svg>